PathFileType	4	(X/Y/Z)	 s02c0402.trc
DataRate	CameraRate	NumFrames	NumMarkers	Units	OrigDataRate	OrigDataStartFrame	OrigNumFrames
200	200	6	50	mm	200	751	2000
Frame#	Time	racr			lacr			c7			jug			rlel			rdr			llel			ldr			s2			lic			ric			lasi			rasi			rpsi			lpsi			rgt			lgt			rth1			rth2			rth3			rth4			rlfc			rmfc			rsh1			rsh2			rsh3			rsh4			rlmal			rmmal			rtoe			rmt5			rmt1			lth1			lth2			lth4			lth3			llfc			lmfc			lsh1			lsh2			lsh3			lsh4			llmal			lmmal			lcal			ltoe			lmt5			SBIKE			LBIKE			RBIKE			
		X1	Y1	Z1	X2	Y2	Z2	X3	Y3	Z3	X4	Y4	Z4	X5	Y5	Z5	X6	Y6	Z6	X7	Y7	Z7	X8	Y8	Z8	X9	Y9	Z9	X10	Y10	Z10	X11	Y11	Z11	X12	Y12	Z12	X13	Y13	Z13	X14	Y14	Z14	X15	Y15	Z15	X16	Y16	Z16	X17	Y17	Z17	X18	Y18	Z18	X19	Y19	Z19	X20	Y20	Z20	X21	Y21	Z21	X22	Y22	Z22	X23	Y23	Z23	X24	Y24	Z24	X25	Y25	Z25	X26	Y26	Z26	X27	Y27	Z27	X28	Y28	Z28	X29	Y29	Z29	X30	Y30	Z30	X31	Y31	Z31	X32	Y32	Z32	X33	Y33	Z33	X34	Y34	Z34	X35	Y35	Z35	X36	Y36	Z36	X37	Y37	Z37	X38	Y38	Z38	X39	Y39	Z39	X40	Y40	Z40	X41	Y41	Z41	X42	Y42	Z42	X43	Y43	Z43	X44	Y44	Z44	X45	Y45	Z45	X46	Y46	Z46	X47	Y47	Z47	X48	Y48	Z48	X49	Y49	Z49	X50	Y50	Z50	
751	3.7550	541.546547	1227.033867	-52.110256	618.858902	1270.747027	-426.673426	598.635984	1326.998119	-236.365882	547.520313	1194.248603	-244.309825	506.688374	958.913047	-29.292798	677.482449	876.226485	-109.073758	533.764644	1028.088521	-571.340577	681.518948	884.310033	-494.291759	78.256330	1127.821039	-305.643529	221.013300	1138.249577	-441.325895	204.489840	1118.167377	-152.213846	260.036124	1105.478909	-413.119715	261.247547	1087.999936	-176.171350	106.911569	1163.340043	-257.052020	111.950841	1180.070723	-340.319256	164.482831	1026.475332	-125.579247	173.813528	1061.496941	-485.510227	216.060818	945.593198	-110.975393	261.625133	869.946682	-112.272184	266.038675	785.276600	-95.301587	292.239711	877.959578	-133.497313	284.032272	652.010084	-133.356702	286.035366	636.242563	-236.043546	269.978233	544.627583	-113.906083	284.541789	457.914535	-130.268176	254.233737	376.663613	-132.952634	301.777384	459.934466	-165.811374	235.062533	258.064202	-146.560867	246.160970	279.885918	-225.615679	440.681033	155.337100	-183.290132	328.528914	162.151907	-128.431941	361.930501	175.094706	-233.847620	301.764030	1013.161590	-492.814402	386.182650	994.284166	-487.012668	399.798707	1021.303760	-466.024942	450.681584	933.117939	-490.710232	532.416250	873.200963	-470.458675	526.117977	843.926901	-358.636626	477.155262	788.193850	-488.280223	420.628782	724.559514	-471.642345	338.414152	689.193482	-481.823140	430.679676	713.079544	-433.513209	237.806272	641.177725	-476.430816	248.902259	632.326859	-397.115708	151.041050	636.186515	-437.057743	375.105324	456.612553	-435.782887	278.665214	501.352797	-498.881070	-162.435149	859.321674	-312.100073	37.155914	86.607212	-514.223305	33.818508	83.191592	-114.169762	
752	3.7600	543.381855	1228.690741	-54.434675	619.040219	1270.912856	-429.724369	599.644407	1328.004224	-239.392451	548.067082	1195.560210	-246.246577	507.386057	960.760636	-29.719981	677.643109	876.398321	-109.069077	533.492222	1027.445717	-572.298493	681.417566	884.577574	-494.203446	78.231467	1129.776043	-305.352152	220.660401	1140.393553	-442.149465	205.160692	1119.921260	-152.520806	259.640052	1107.634559	-413.583850	261.525106	1089.319173	-176.671459	107.267811	1165.338755	-256.821190	111.578830	1182.034142	-339.804050	164.343892	1028.011669	-125.933330	173.567779	1064.090455	-485.826157	215.048246	946.694612	-111.492682	259.587347	870.460461	-112.929194	262.988992	785.771770	-95.896566	290.246942	877.971836	-134.318751	279.537513	652.400921	-134.167809	281.377059	636.673239	-236.797655	265.002919	545.422812	-114.463489	279.020609	458.470183	-130.890333	249.169960	377.192359	-133.563898	297.046554	460.568304	-166.025461	230.794292	258.859761	-146.415524	242.655158	280.045449	-223.931568	434.760055	152.100398	-183.280557	322.816283	161.081426	-128.464883	356.463506	173.277307	-233.659004	302.234455	1016.157457	-493.824416	386.346439	997.260576	-487.153484	400.005936	1024.378808	-466.336896	450.957179	936.076953	-490.468975	533.579368	876.687674	-469.586093	531.117440	848.133955	-359.957004	478.528633	791.331448	-487.991354	422.703135	727.086421	-471.264951	341.092023	690.584608	-481.509223	432.959786	715.912780	-433.335946	240.861928	641.612535	-475.942544	251.899812	632.903493	-396.678641	153.917572	635.018008	-436.752430	381.791313	460.294733	-436.000838	284.912222	504.133731	-500.353093	-162.546864	859.186975	-312.417868	37.139482	86.613021	-514.220189	33.822424	83.190274	-114.167954	
753	3.7650	545.366480	1230.435561	-56.913053	619.172548	1271.144482	-432.752150	600.708752	1328.939350	-242.479788	548.594368	1196.666387	-248.564209	508.130930	962.540111	-30.240390	677.803306	876.535777	-109.039807	533.095085	1026.768453	-573.235707	681.305354	884.845426	-494.133405	78.190826	1131.943200	-304.915351	219.889226	1142.381377	-442.276813	205.854335	1121.827035	-152.915886	259.220289	1109.926720	-414.044603	261.717891	1090.710599	-177.161450	107.632091	1167.421558	-256.689152	111.200441	1184.371452	-339.507262	164.211588	1029.709279	-126.252490	173.436287	1066.631719	-486.178109	214.024007	947.930060	-112.063591	257.660121	871.046288	-113.625213	260.088838	786.358668	-96.500829	288.318220	878.194281	-135.051491	275.145170	653.046267	-134.955018	276.366157	637.912741	-238.024507	260.186917	546.391004	-115.004997	275.010139	459.619334	-130.810637	244.615341	378.183191	-133.729603	292.572348	461.509442	-166.261965	226.623209	259.806167	-146.347848	238.932007	280.726702	-223.764703	428.822258	149.249722	-183.208960	316.991047	160.262613	-128.517837	350.957176	171.854895	-233.579624	302.394568	1018.768163	-494.208086	386.369414	999.685899	-486.898845	400.247824	1027.409729	-466.973240	451.094732	938.849281	-490.342750	532.681322	879.559629	-470.886647	530.915455	851.055586	-359.691644	479.835667	794.355883	-487.804016	425.319461	729.918112	-471.762703	343.648888	691.963738	-481.220858	435.239526	718.480373	-432.946908	243.937241	641.806791	-475.782469	254.944891	633.046119	-396.429343	156.810141	633.321390	-436.193138	388.503034	463.663195	-436.045509	290.085201	504.556341	-498.937215	-162.518755	859.944808	-309.921311	37.127003	86.600794	-514.215466	33.805113	83.169703	-114.173546	
754	3.7700	547.309006	1232.052099	-59.481469	619.268553	1271.176801	-435.692288	601.857069	1329.790603	-245.633760	549.088898	1197.671793	-250.941529	508.923055	964.387082	-30.834262	677.956803	876.634531	-109.088653	532.671871	1025.963151	-574.077613	681.162001	885.109295	-494.005108	77.987205	1134.403828	-304.753623	219.428374	1144.580859	-442.691548	206.470786	1123.827408	-153.199096	258.864314	1112.317934	-414.431710	261.811268	1092.216032	-177.601878	108.048045	1169.666303	-256.777142	110.800820	1186.652407	-339.217685	164.049273	1031.618832	-126.501809	173.344286	1069.253893	-486.531230	213.004633	949.294585	-112.781992	255.718903	871.956614	-114.250678	257.286243	787.230597	-97.096935	286.403041	878.720592	-135.790896	271.040767	653.948521	-135.719307	272.204587	638.642477	-238.623654	255.489124	547.607826	-115.543468	269.690996	460.601945	-131.450963	240.068591	379.215735	-133.874638	288.160933	462.583365	-166.347635	222.444810	261.037793	-146.313939	235.182974	281.646670	-223.578956	422.782606	146.474619	-183.260909	311.237896	159.615668	-128.617205	345.430386	170.680163	-233.417485	302.460274	1021.513119	-494.518003	386.445843	1002.348261	-487.195490	400.572185	1030.522854	-468.157600	451.149408	941.527566	-490.335884	533.100681	883.178108	-470.723105	531.433715	854.090819	-359.743103	481.044479	797.279850	-487.733797	427.262646	732.045360	-471.524516	346.175649	693.112177	-481.018071	437.474564	720.792898	-432.873132	247.080640	641.614995	-475.194708	258.210485	632.929666	-396.080421	159.849916	631.486405	-435.900409	395.113762	466.731318	-436.132523	295.870594	505.662911	-498.965579	-162.551814	860.073610	-309.616331	37.138624	86.616678	-514.225319	33.797701	83.208814	-114.174194	
755	3.7750	549.371837	1233.714581	-62.021725	619.271423	1271.147496	-438.538691	603.008043	1330.515412	-248.909542	549.547515	1198.780389	-253.413177	509.723913	966.190791	-31.479994	678.141867	876.715505	-109.143577	532.072964	1025.150501	-575.052543	680.940537	885.384932	-493.848794	77.885276	1136.630490	-305.129825	218.847953	1146.617262	-442.737360	207.067981	1125.980729	-153.474449	258.577378	1114.699532	-414.734525	261.830243	1093.690740	-178.026110	108.429071	1172.061115	-256.668186	110.599496	1189.181553	-339.019094	163.876140	1033.577623	-126.764262	173.273222	1071.905712	-486.873035	212.006006	950.751860	-113.384842	253.840806	873.069528	-114.896805	254.555358	788.360261	-97.648223	284.548632	879.418234	-136.543025	266.991602	654.872741	-136.417685	268.134220	639.726698	-239.388251	250.990927	549.003545	-116.040068	265.968536	462.067435	-131.357261	235.951608	381.164253	-132.554652	283.863887	463.855816	-166.532641	218.371488	262.436678	-146.265104	231.480334	282.928255	-223.369675	416.591522	143.772162	-183.257711	305.397598	159.369586	-128.647763	338.704429	168.712265	-234.469938	302.430138	1023.861815	-495.012579	386.389683	1004.996147	-487.567184	400.607931	1033.207051	-468.649736	451.121703	944.124081	-490.329071	534.087847	886.859271	-469.944500	528.315113	860.199578	-359.041824	482.175922	799.909631	-487.810781	429.378049	734.002516	-471.612850	348.674554	694.069940	-481.017509	439.694430	722.835041	-432.791319	250.209981	641.155488	-474.913950	261.228244	632.622856	-395.929525	163.008614	629.363730	-435.769286	401.915713	469.765611	-436.363162	301.711151	506.480721	-499.002185	-162.521878	859.989605	-309.804955	37.133503	86.590349	-514.237041	33.795034	83.186602	-114.170834	
756	3.7800	551.476377	1235.342779	-64.646269	619.078816	1270.729437	-440.884727	604.238365	1331.167357	-252.168352	550.044252	1199.727656	-255.801326	510.579547	967.991913	-32.202369	678.363025	876.766895	-109.256736	531.489527	1024.271829	-575.997133	680.707498	885.656638	-493.767846	77.510906	1138.893796	-305.508756	218.436272	1149.177875	-443.225062	207.646142	1128.227745	-153.797648	258.305298	1117.162676	-415.032391	261.880793	1095.428933	-178.401209	108.798862	1174.506063	-256.424707	110.643152	1191.741770	-338.866144	163.626599	1035.636617	-127.037381	173.218712	1074.607482	-487.193357	210.926498	952.496981	-113.852819	252.054696	874.341089	-115.521195	251.988375	789.692274	-98.099410	282.785942	880.328269	-137.227516	263.268022	656.144463	-136.971201	264.324338	641.015841	-240.103631	246.683799	550.583950	-116.525310	261.014799	463.591387	-131.879221	231.721486	382.771460	-132.648181	279.796664	465.255938	-166.660503	214.339301	264.118918	-146.199111	227.794129	284.407511	-223.165637	410.392687	141.426551	-183.161566	299.541125	159.299989	-128.752080	333.067218	167.858068	-234.313482	301.621341	1027.061212	-493.164289	386.221469	1007.619691	-488.079118	400.554330	1035.943277	-469.143369	450.948305	946.678111	-490.485636	533.982818	889.798739	-470.287372	528.315339	862.528139	-359.328880	483.228525	802.340389	-487.958086	431.437049	735.723920	-471.740973	351.155048	694.729139	-481.045149	441.858490	724.715337	-432.957843	253.346955	640.342879	-474.839146	264.515247	631.868254	-395.652830	166.650406	626.781723	-436.031627	408.547690	472.369534	-436.357389	307.572325	507.030436	-499.035400	-162.550300	859.982016	-309.731794	37.122389	86.596138	-514.234117	33.293865	83.626414	-114.213886	
